<svg xmlns="http://www.w3.org/2000/svg" viewBox="0 0 676 205">
  <g fill="currentColor" fill-rule="nonzero">
    <path fill="#00A7DF" d="M234.2 55.6v-1.2c0-14.2-10.3-23.8-29.7-23.8h-38.2v84.3h16v-33h7.4l26.9 33h19.1l-26.9-33.6c18.3-2.1 25.4-12.1 25.4-25.7Zm-52 13.4V43.7h20.7c9.2 0 14.7 4.1 14.8 12.2-.1 8.2-5.6 13-14.8 13h-20.7v.1ZM.7 87.1h15.7c.2 13.3 9.1 16.8 20.8 16.8 11 0 17-4.3 17-12.2 0-6.6-4.4-9.6-17.3-12.2l-7.1-1.4C13.5 75 2.7 67.8 2.7 52.5c0-14 11-23.8 31.2-23.8 23.7 0 33.7 11.1 34.3 27H52.7c-.6-9-5.2-14.1-18.6-14.1-10.2 0-15.2 4-15.2 10.4 0 6.7 3.9 9.8 16.5 12.4l7.3 1.4c19.9 3.9 27.9 11.6 27.9 25 0 16.7-13 25.9-34.1 25.9C14.3 116.8.8 106.5.7 87.1ZM76.8 72.7c0-27.2 16.5-44 40.8-44 18.7 0 34.6 10.1 38.2 30.9h-16.2c-3-11.8-11.7-16.9-22-16.9-15 0-24.1 11.2-24.1 30.1 0 18.9 9.1 30.1 24.1 30.1 10.8 0 20.7-6.4 22.6-19.6h16c-2.4 22.3-19.3 33.6-38.6 33.6-24-.1-40.8-16.9-40.8-44.2ZM244.9 30.6h16v84.3h-16zM343.5 90.7c0 14.4-9.5 24.1-29.4 24.1h-39.4V30.5h38.1c19.4 0 27.2 10.3 27.2 21.8 0 8.3-4.3 14.6-11.2 18.1 10 3.8 14.7 11.9 14.7 20.3Zm-52.8-47v22h21c8.3 0 12.5-4.4 12.5-11.4 0-6.3-4.3-10.7-12.5-10.7h-21v.1ZM327.2 90c0-7.9-5.2-11.7-13.8-11.7h-22.6v23.3h22.6c8.9 0 13.8-4.2 13.8-11.6ZM348.8 72.7c0-26.5 16.8-44 42.1-44 25.2 0 42 17.5 42 44s-16.8 44-42 44c-25.2.1-42.1-17.4-42.1-44Zm67.6 0c0-18.6-10.1-29.9-25.4-29.9-15.3 0-25.4 11.4-25.4 29.9s10.1 29.9 25.4 29.9c15.3 0 25.4-11.3 25.4-29.9ZM438.3 87.1H454c.2 13.3 9.1 16.8 20.8 16.8 11 0 17-4.3 17-12.2 0-6.6-4.4-9.6-17.3-12.2l-7.1-1.4c-16.3-3.1-27.1-10.3-27.1-25.6 0-14 11-23.8 31.3-23.8 23.7 0 33.7 11.1 34.3 27h-15.5c-.6-9-5.2-14.1-18.6-14.1-10.2 0-15.2 4-15.2 10.4 0 6.7 3.9 9.8 16.5 12.4l7.3 1.4c19.9 3.9 27.9 11.6 27.9 25 0 16.7-13 25.9-34.1 25.9-22.2.1-35.7-10.2-35.9-29.6Z"></path>
    <path fill="#232967" d="m670.5 176.1-1.7 5.1c-1.1 3.6-2.2 7.3-3.3 11.3-1-4-2.1-7.8-3.2-11.4l-1.7-5.1h-5.4l5.9 16.7c.5 1.3.9 2.9.9 4.1 0 1.7-.9 3.3-3.4 3.3h-1.9v3.9c.6.1 1.2.1 2.2.1 4.9 0 7.1-1.6 8.8-6.1l7.9-22h-5.1v.1Zm-23.5-.4c-2.9 0-5.1 1.5-6.4 3.4v-2.9h-4.8v20.3h5v-11.4c0-3.6 2.4-5.1 4.5-5.1 2.5 0 3.8 1.3 3.8 3.9v12.7h5V183c0-4.9-2.8-7.3-7.1-7.3m-25 17.7c-2.3 0-3.4-1.1-3.4-2.8 0-1.6.9-2.6 3.7-2.9l2.7-.3c1.1-.1 1.8-.4 2.3-.8v1.9c-.1 3.5-2.7 4.9-5.3 4.9m10.9 3.1c-.6-.8-.8-2.4-.8-3.9v-10.8c0-3.7-2.4-6.1-8.5-6.1-6.4 0-8.9 2.6-9.1 6.9h4.9c.2-2.5 1.4-3.2 4.2-3.2 2.9 0 3.7.9 3.7 2.5 0 1.5-1 2.1-2.9 2.3l-3.1.3c-5.8.6-7.8 3-7.8 6.3 0 3.9 3 6.1 7.3 6.1 3 0 5.2-1.1 6.6-3 .1 1 .2 1.9.6 2.5h4.9v.1Zm-31.5-3.6c-3.2 0-5.2-2.2-5.2-6.5s2-6.5 5.2-6.5 5.2 2.1 5.2 6.4c0 4.2-2 6.6-5.2 6.6m1.2-17.2c-3 0-5.1 1.3-6.5 3.4v-2.9h-4.8v28.1h5v-10.4c1.4 2 3.5 3.1 6.3 3.1 5.6 0 9.1-4.2 9.1-10.6 0-6.6-3.5-10.7-9.1-10.7m-22.4 0c-2.8 0-5 1.6-6.3 3.8-1-2.3-3.2-3.8-6.3-3.8-2.7 0-4.6 1.4-5.8 3.4v-2.9H557v20.3h5v-11.2c0-3.8 2.1-5.3 4.2-5.3 2.4 0 3.6 1.3 3.6 3.9v12.7h4.9v-11.2c0-3.8 2.1-5.3 4.2-5.3 2.4 0 3.5 1.3 3.5 3.9v12.7h5V183c-.1-4.5-2.7-7.3-7.2-7.3m-36.7 17.2c-3.2 0-5.3-2.2-5.3-6.5s2.1-6.5 5.3-6.5c3.2 0 5.3 2.2 5.3 6.5 0 4.2-2.1 6.5-5.3 6.5m0 4.1c6.2 0 10.3-4.2 10.3-10.6 0-6.5-4.1-10.6-10.3-10.6-6.2 0-10.4 4.2-10.4 10.6 0 6.4 4.2 10.6 10.4 10.6m-21.8 0c5.2 0 9-3.1 9.5-8h-5c-.4 2.7-2.3 3.9-4.6 3.9-2.9 0-5-2.1-5-6.5s2-6.5 5-6.5c2.2 0 4 1.1 4.5 3.7h5c-.6-4.8-4.1-7.8-9.5-7.8-6.1 0-10.1 4.1-10.1 10.6.1 6.4 4.1 10.6 10.2 10.6m-169.2-3.6c-2.3 0-3.4-1.1-3.4-2.8 0-1.6.9-2.6 3.7-2.9l2.7-.3c1.1-.1 1.8-.4 2.3-.8v1.9c-.1 3.5-2.7 4.9-5.3 4.9m10.9 3.1c-.6-.8-.8-2.4-.8-3.9v-10.8c0-3.7-2.4-6.1-8.5-6.1-6.4 0-8.9 2.6-9.1 6.9h4.9c.2-2.5 1.4-3.2 4.2-3.2 2.9 0 3.7.9 3.7 2.5 0 1.5-1 2.1-2.9 2.3l-3.1.3c-5.8.6-7.8 3-7.8 6.3 0 3.9 3 6.1 7.3 6.1 3 0 5.2-1.1 6.5-3 .1 1 .2 1.9.6 2.5h5v.1Z"></path>
    <g fill="#232967">
      <path d="M502.3 168.4H475v5.3h17.3l-18.5 17.9v4.9h28.5v-5.4h-18.5l18.5-17.8zM461.6 186.2c7.7 0 8.9-5.8 9-8.9.2-4.1-1.3-8.8-8.5-8.9h-20.9v28.1h7.6v-10.3h3.3l10.2 10.3h10.3l-11-10.3Zm-2.7-5.4h-10.1v-7.1h9.7c1.8 0 4 .7 4 3.5.1 2.7-1.9 3.6-3.6 3.6ZM428.9 184.5c0 2.8-.1 7.4-7.1 7.4s-7.1-4.6-7.1-7.4v-16.1h-7.6v18c0 3.2.4 10.9 14.7 10.9 14.3 0 14.7-7.7 14.7-10.9v-18h-7.6v16.1ZM405.2 168.4H395l-13 14v-14h-7.6v28.1h7.6v-14l13.9 14h10.3l-15-14.1z"></path>
    </g>
    <path fill="#232967" d="M536.3 0v137.8h137.8V0H536.3Zm133.4 133.3H540.8V4.4h128.9v128.9Z"></path>
    <path fill="#232967" d="m657.8 30.7.4-9.1h3v-6.2h-42.9v6.2h3l.3 9.1h-32.1v-4.4h-7.2v-11h-30.6v15.4H547v6.9h4.6v8.9c0 5.1 2.5 9.6 6.8 12v56.4h62.1v7.8H659V73.2h-38.5v7.6L592 88.5l-9.4-31.1c3.5-1.6 6.8-6.3 6.8-10.9v-8.9H622l.7 22.7h33.8l.7-22.7h3.9v-6.9h-3.3Zm-99.3-9.2h16.8v4.7H567v6h-8.4V21.5h-.1Zm93.7 58.4v35.9h-24.9V79.9h24.9Zm-31.7 7.9V108h-55.3V53.3c-4 0-6.8-3.1-6.8-6.9v-7.6h13.2c4.6 0 8.6-2.5 10.1-6.4h.6v14c0 3.8-1.7 6.9-7.9 6.9l13 43.4 33.1-8.9ZM649.7 54h-20l-.9-32.5h22L649.7 54Z"></path>
  </g>
</svg>
